<svg width="80" height="124" viewBox="0 0 80 124" fill="none" xmlns="http://www.w3.org/2000/svg">
<path d="M67.4241 66.5758L51.6878 63.7669C51.5118 63.7355 51.3442 63.6677 51.1958 63.5678C51.0475 63.4679 50.9216 63.3382 50.8261 63.187C50.7307 63.0357 50.6679 62.8662 50.6417 62.6893C50.6156 62.5124 50.6266 62.3319 50.6741 62.1595L63.7002 14.8469C65.4548 8.47316 57.5217 3.99025 52.9673 8.7818L11.0689 52.8634C9.79658 54.2025 10.5238 56.4192 12.3424 56.7438L28.0787 59.5527C28.2547 59.5841 28.4223 59.6519 28.5707 59.7518C28.719 59.8516 28.845 59.9813 28.9404 60.1326C29.0358 60.2839 29.0986 60.4534 29.1248 60.6303C29.1509 60.8072 29.1399 60.9877 29.0925 61.1601L16.0663 108.473C14.3117 114.846 22.2448 119.329 26.7992 114.538L68.6976 70.4562C69.9699 69.1171 69.2427 66.9004 67.4241 66.5758Z" fill="url(#paint0_linear_84_439)"/>
<path d="M67.4243 66.5759L51.688 63.767C51.512 63.7356 51.3444 63.6678 51.196 63.5679C51.0476 63.4681 50.9217 63.3384 50.8263 63.1871C50.7309 63.0358 50.6681 62.8663 50.6419 62.6894C50.6157 62.5125 50.6267 62.3321 50.6742 62.1596L63.7004 14.847C64.3328 12.551 63.7036 10.5033 62.4318 9.04303L40.491 37.2524C37.8616 40.6331 36.3827 44.7664 36.2707 49.0478C36.1587 53.3292 37.4194 57.5342 39.8685 61.0477C42.2349 64.4422 43.494 68.4852 43.4734 72.6231C43.4528 76.761 42.1535 80.7913 39.7533 84.162L17.9006 114.854C20.2568 116.962 24.1145 117.362 26.7995 114.537L68.6978 70.4557C69.9701 69.1172 69.2429 66.9005 67.4243 66.5759Z" fill="url(#paint1_linear_84_439)"/>
<defs>
<linearGradient id="paint0_linear_84_439" x1="22.9252" y1="44.8604" x2="49.3004" y2="70.9892" gradientUnits="userSpaceOnUse">
<stop stop-color="#FEF0AE"/>
<stop offset="1" stop-color="#FF9900"/>
</linearGradient>
<linearGradient id="paint1_linear_84_439" x1="49.2283" y1="64.9451" x2="26.3802" y2="58.2433" gradientUnits="userSpaceOnUse">
<stop stop-color="#DC8758" stop-opacity="0"/>
<stop offset="0.215" stop-color="#DD8654" stop-opacity="0.215"/>
<stop offset="0.429" stop-color="#E28448" stop-opacity="0.429"/>
<stop offset="0.642" stop-color="#EA8034" stop-opacity="0.642"/>
<stop offset="0.854" stop-color="#F47B18" stop-opacity="0.854"/>
<stop offset="1" stop-color="#FE7701"/>
</linearGradient>
</defs>
</svg>
