<svg width="66" height="36" viewBox="0 0 66 36" fill="none" xmlns="http://www.w3.org/2000/svg">
<path d="M47.4066 0.5H18C8.33502 0.5 0.5 8.33502 0.5 18C0.5 27.665 8.33502 35.5 18 35.5H47.4066C57.0716 35.5 64.9066 27.665 64.9066 18C64.9066 8.33502 57.0716 0.5 47.4066 0.5Z" fill="white"/>
<mask id="mask0_78_517" style="mask-type:luminance" maskUnits="userSpaceOnUse" x="16" y="8" width="34" height="20">
<path d="M49.4066 8H16V28H49.4066V8Z" fill="white"/>
</mask>
<g mask="url(#mask0_78_517)">
<path d="M25.4943 15.2969C25.4943 15.7035 25.5383 16.0332 25.6153 16.2749C25.7033 16.5167 25.8133 16.7804 25.9673 17.0661C26.0223 17.1541 26.0433 17.242 26.0433 17.3189C26.0433 17.4288 25.9783 17.5387 25.8353 17.6486L25.1423 18.1101C25.0433 18.176 24.9453 18.209 24.8573 18.209C24.7473 18.209 24.6373 18.1541 24.5273 18.0552C24.3733 17.8903 24.2413 17.7145 24.1313 17.5387C24.0223 17.3519 23.9123 17.1431 23.7913 16.8903C22.9343 17.9013 21.8573 18.4068 20.5603 18.4068C19.6373 18.4068 18.9013 18.1431 18.3623 17.6156C17.8243 17.0881 17.5493 16.3848 17.5493 15.5057C17.5493 14.5716 17.8793 13.8134 18.5493 13.242C19.2193 12.6705 20.1093 12.3848 21.2413 12.3848C21.6153 12.3848 22.0003 12.4178 22.4063 12.4727C22.8133 12.5277 23.2303 12.6156 23.6703 12.7145V11.9123C23.6703 11.0771 23.4943 10.4947 23.1533 10.1541C22.8023 9.8134 22.2083 9.64857 21.3623 9.64857C20.9783 9.64857 20.5823 9.69252 20.1753 9.79142C19.7693 9.89032 19.3733 10.0112 18.9893 10.165C18.8133 10.242 18.6813 10.2859 18.6043 10.3079C18.5273 10.3299 18.4723 10.3409 18.4283 10.3409C18.2743 10.3409 18.1973 10.231 18.1973 10.0002V9.46175C18.1973 9.28593 18.2193 9.15406 18.2743 9.07714C18.3293 9.00021 18.4283 8.92329 18.5823 8.84637C18.9673 8.64857 19.4283 8.48373 19.9673 8.35186C20.5053 8.20901 21.0763 8.14307 21.6813 8.14307C22.9893 8.14307 23.9453 8.43977 24.5603 9.03318C25.1643 9.62659 25.4723 10.5277 25.4723 11.7365V15.2969H25.4943ZM21.0333 16.9672C21.3953 16.9672 21.7693 16.9013 22.1643 16.7694C22.5603 16.6376 22.9123 16.3958 23.2083 16.0661C23.3843 15.8574 23.5163 15.6266 23.5823 15.3629C23.6483 15.0991 23.6923 14.7804 23.6923 14.4068V13.9453C23.3733 13.8683 23.0333 13.8024 22.6813 13.7585C22.3293 13.7145 21.9893 13.6925 21.6483 13.6925C20.9123 13.6925 20.3733 13.8354 20.0113 14.1321C19.6483 14.4288 19.4723 14.8464 19.4723 15.3958C19.4723 15.9123 19.6043 16.2969 19.8793 16.5607C20.1423 16.8354 20.5273 16.9672 21.0333 16.9672ZM29.8573 18.1541C29.6593 18.1541 29.5273 18.1211 29.4393 18.0442C29.3513 17.9782 29.2743 17.8244 29.2083 17.6156L26.6263 9.12109C26.5603 8.90131 26.5273 8.75846 26.5273 8.68153C26.5273 8.50571 26.6153 8.40681 26.7913 8.40681H27.8683C28.0763 8.40681 28.2193 8.43978 28.2963 8.5167C28.3843 8.58263 28.4503 8.73648 28.5163 8.94527L30.3623 16.22L32.0763 8.94527C32.1313 8.72549 32.1973 8.58263 32.2853 8.5167C32.3733 8.45076 32.5273 8.40681 32.7253 8.40681H33.6043C33.8133 8.40681 33.9563 8.43978 34.0433 8.5167C34.1313 8.58263 34.2083 8.73648 34.2523 8.94527L35.9893 16.3079L37.8903 8.94527C37.9563 8.72549 38.0333 8.58263 38.1093 8.5167C38.1973 8.45076 38.3403 8.40681 38.5383 8.40681H39.5603C39.7363 8.40681 39.8353 8.49472 39.8353 8.68153C39.8353 8.73648 39.8243 8.79142 39.8133 8.85736C39.8023 8.92329 39.7803 9.0112 39.7363 9.13208L37.0873 17.6266C37.0223 17.8464 36.9453 17.9892 36.8573 18.0552C36.7693 18.1211 36.6263 18.165 36.4393 18.165H35.4943C35.2853 18.165 35.1423 18.1321 35.0543 18.0552C34.9673 17.9782 34.8903 17.8354 34.8463 17.6156L33.1423 10.5277L31.4503 17.6046C31.3953 17.8244 31.3293 17.9672 31.2413 18.0442C31.1533 18.1211 31.0003 18.1541 30.8023 18.1541H29.8573ZM43.9783 18.4508C43.4063 18.4508 42.8353 18.3848 42.2853 18.253C41.7363 18.1211 41.3073 17.9782 41.0223 17.8134C40.8463 17.7145 40.7253 17.6046 40.6813 17.5057C40.6373 17.4068 40.6153 17.2969 40.6153 17.198V16.6376C40.6153 16.4068 40.7033 16.2969 40.8683 16.2969C40.9343 16.2969 41.0003 16.3079 41.0653 16.3299C41.1313 16.3519 41.2303 16.3958 41.3403 16.4398C41.7143 16.6046 42.1203 16.7365 42.5493 16.8244C42.9893 16.9123 43.4173 16.9563 43.8573 16.9563C44.5493 16.9563 45.0873 16.8354 45.4613 16.5936C45.8353 16.3519 46.0323 16.0002 46.0323 15.5497C46.0323 15.242 45.9343 14.9892 45.7363 14.7804C45.5383 14.5716 45.1643 14.3848 44.6263 14.209L43.0333 13.7145C42.2303 13.4618 41.6373 13.0881 41.2743 12.5936C40.9123 12.1101 40.7253 11.5716 40.7253 11.0002C40.7253 10.5387 40.8243 10.1321 41.0223 9.78043C41.2193 9.42879 41.4833 9.12109 41.8133 8.87934C42.1423 8.62659 42.5163 8.43978 42.9563 8.30791C43.3953 8.17604 43.8573 8.12109 44.3403 8.12109C44.5823 8.12109 44.8353 8.13208 45.0763 8.16505C45.3293 8.19802 45.5603 8.24197 45.7913 8.28593C46.0113 8.34087 46.2193 8.39582 46.4173 8.46175C46.6153 8.52769 46.7693 8.59362 46.8793 8.65956C47.0333 8.74747 47.1423 8.83538 47.2083 8.93428C47.2743 9.02219 47.3073 9.14307 47.3073 9.29692V9.8134C47.3073 10.0442 47.2193 10.165 47.0543 10.165C46.9673 10.165 46.8243 10.1211 46.6373 10.0332C46.0113 9.74747 45.3073 9.60461 44.5273 9.60461C43.9013 9.60461 43.4063 9.70351 43.0653 9.9123C42.7253 10.1211 42.5493 10.4398 42.5493 10.8903C42.5493 11.198 42.6593 11.4618 42.8793 11.6705C43.0983 11.8793 43.5053 12.0881 44.0873 12.2749L45.6483 12.7694C46.4393 13.0222 47.0113 13.3738 47.3513 13.8244C47.6923 14.2749 47.8573 14.7914 47.8573 15.3629C47.8573 15.8354 47.7583 16.264 47.5713 16.6376C47.3733 17.0112 47.1093 17.3409 46.7693 17.6046C46.4283 17.8793 46.0223 18.0771 45.5493 18.22C45.0543 18.3738 44.5383 18.4508 43.9783 18.4508Z" fill="#252F3E"/>
<path fill-rule="evenodd" clip-rule="evenodd" d="M46.0532 23.7913C42.4382 26.4617 37.1852 27.8793 32.6692 27.8793C26.3392 27.8793 20.6362 25.5386 16.3282 21.6485C15.9882 21.3408 16.2952 20.9232 16.7022 21.165C21.3612 23.8683 27.1082 25.5056 33.0532 25.5056C37.0642 25.5056 41.4712 24.6705 45.5262 22.9562C46.1302 22.6815 46.6472 23.3518 46.0532 23.7913Z" fill="#FF9900"/>
<path fill-rule="evenodd" clip-rule="evenodd" d="M47.5602 22.0772C47.0992 21.4838 44.5052 21.7915 43.3302 21.9343C42.9782 21.9783 42.9232 21.6706 43.2422 21.4398C45.3082 19.9893 48.7032 20.4068 49.0992 20.8904C49.4942 21.3849 48.9892 24.7805 47.0552 26.4068C46.7582 26.6596 46.4722 26.5277 46.6042 26.1981C47.0442 25.1101 48.0222 22.6596 47.5602 22.0772Z" fill="#FF9900"/>
</g>
<path d="M47.4066 0.5H18C8.33502 0.5 0.5 8.33502 0.5 18C0.5 27.665 8.33502 35.5 18 35.5H47.4066C57.0716 35.5 64.9066 27.665 64.9066 18C64.9066 8.33502 57.0716 0.5 47.4066 0.5Z" stroke="#E8E8E8"/>
</svg>
