<svg width="20" height="20" viewBox="0 0 20 20" fill="none" xmlns="http://www.w3.org/2000/svg">
<circle cx="2.5" cy="2.5" r="2.5" transform="matrix(-1 0 0 1 12.4995 7.49951)" stroke="#FAFAFA" stroke-width="1.25"/>
<path d="M10 1.6665L10 1.0415L10 1.0415L10 1.6665ZM13.749 4.11377L13.4364 4.65497L13.4365 4.65504L13.749 4.11377ZM16.666 9.99951L16.041 9.99946V9.99951L16.666 9.99951ZM13.749 15.8853L13.4365 15.344L13.4364 15.344L13.749 15.8853ZM10 18.3335L10 18.9585H10L10 18.3335ZM6.24902 15.8853L6.56152 15.344L6.56148 15.344L6.24902 15.8853ZM3.33301 9.99951L3.95801 9.99951L3.95801 9.99946L3.33301 9.99951ZM6.24902 4.11377L6.56149 4.65505L6.56152 4.65504L6.24902 4.11377ZM7.4316 2.51349L8.04058 2.65407L7.4316 2.51349ZM2.13164 7.2553L1.54147 7.04958L2.13164 7.2553ZM4.42961 15.6177L4.28643 15.0093L4.42961 15.6177ZM3.67345 15.4201L4.14788 15.0133L3.67345 15.4201ZM7.94425 18.0767L7.79023 18.6825L7.94425 18.0767ZM7.43159 17.4856L6.82261 17.6262L7.43159 17.4856ZM12.5655 17.4862L13.1744 17.6269L12.5655 17.4862ZM12.0524 18.0776L12.2062 18.6834L12.0524 18.0776ZM15.5686 15.6187L15.4252 16.227L15.5686 15.6187ZM17.8682 7.25516L17.2781 7.46101L17.8682 7.25516ZM2.13148 12.7425L1.54128 12.9482L2.13148 12.7425ZM2.42277 11.9264L2.8203 12.4087L2.42277 11.9264ZM16.3246 4.57766L15.8503 4.98472L16.3246 4.57766ZM3.67341 4.5779L3.19899 4.17102L3.67341 4.5779ZM4.42957 4.38051L4.57307 3.77221L4.42957 4.38051ZM17.577 11.9265L17.9743 11.444L17.577 11.9265ZM17.8684 12.7427L18.4586 12.9484L17.8684 12.7427ZM12.0523 1.92147L11.8988 2.52732L12.0523 1.92147ZM12.5655 2.51289L13.1744 2.37218L12.5655 2.51289ZM10 1.6665L9.99999 2.2915C10.6559 2.29151 11.2919 2.37353 11.8988 2.52732L12.0523 1.92147L12.2059 1.31563C11.4997 1.13666 10.7606 1.04151 10 1.0415L10 1.6665ZM12.5655 2.51289L11.9565 2.65361C12.1442 3.46593 12.6555 4.20393 13.4364 4.65497L13.749 4.11377L14.0616 3.57257C13.5939 3.30238 13.2876 2.8619 13.1744 2.37218L12.5655 2.51289ZM13.749 4.11377L13.4365 4.65504C14.1538 5.06916 14.9671 5.16439 15.7121 4.98868L15.5687 4.38036L15.4252 3.77205C14.9761 3.87797 14.4908 3.82035 14.0615 3.5725L13.749 4.11377ZM16.3246 4.57766L15.8503 4.98472C16.4704 5.70719 16.9585 6.5447 17.2781 7.46101L17.8682 7.25516L18.4584 7.04931C18.0863 5.9828 17.5187 5.00932 16.7989 4.17059L16.3246 4.57766ZM17.5768 8.07171L17.1793 7.58935C16.4858 8.16084 16.0411 9.02783 16.041 9.99946L16.666 9.99951L17.291 9.99957C17.2911 9.41773 17.5559 8.89876 17.9742 8.55406L17.5768 8.07171ZM16.666 9.99951L16.041 9.99951C16.041 10.9714 16.4862 11.8378 17.1796 12.4089L17.577 11.9265L17.9743 11.444C17.5558 11.0994 17.291 10.581 17.291 9.99951L16.666 9.99951ZM17.8684 12.7427L17.2783 12.537C16.9587 13.4537 16.4706 14.2915 15.8503 15.0143L16.3246 15.4213L16.7989 15.8284C17.519 14.9893 18.0867 14.0154 18.4586 12.9484L17.8684 12.7427ZM15.5686 15.6187L15.7121 15.0103C14.967 14.8347 14.1538 14.9299 13.4365 15.344L13.749 15.8853L14.0615 16.4265C14.4908 16.1787 14.9761 16.1211 15.4252 16.227L15.5686 15.6187ZM13.749 15.8853L13.4364 15.344C12.6555 15.7951 12.1442 16.5331 11.9565 17.3455L12.5655 17.4862L13.1744 17.6269C13.2876 17.1371 13.5939 16.6966 14.0616 16.4265L13.749 15.8853ZM12.0524 18.0776L11.8986 17.4718C11.2915 17.6259 10.6557 17.7085 9.99999 17.7085L10 18.3335L10 18.9585C10.761 18.9585 11.5002 18.8626 12.2062 18.6834L12.0524 18.0776ZM10 18.3335L10 17.7085C9.34327 17.7085 8.70634 17.6256 8.09827 17.471L7.94425 18.0767L7.79023 18.6825C8.49729 18.8622 9.23766 18.9585 10 18.9585L10 18.3335ZM7.43159 17.4856L8.04057 17.345C7.85312 16.5331 7.34279 15.795 6.56152 15.344L6.24902 15.8853L5.93652 16.4265C6.40392 16.6964 6.70953 17.1364 6.82261 17.6262L7.43159 17.4856ZM6.24902 15.8853L6.56148 15.344C5.8447 14.9302 5.03176 14.8339 4.28643 15.0093L4.42961 15.6177L4.57279 16.2261C5.02149 16.1205 5.50686 16.1785 5.93656 16.4265L6.24902 15.8853ZM3.67345 15.4201L4.14788 15.0133C3.52833 14.2908 3.04095 13.4532 2.72168 12.5369L2.13148 12.7425L1.54128 12.9482C1.9128 14.0145 2.47959 14.9881 3.19901 15.827L3.67345 15.4201ZM2.42277 11.9264L2.8203 12.4087C3.51342 11.8374 3.95801 10.971 3.95801 9.99951L3.33301 9.99951L2.70801 9.99951C2.70801 10.581 2.44341 11.0994 2.02524 11.4441L2.42277 11.9264ZM3.33301 9.99951L3.95801 9.99946C3.95792 9.02826 3.51385 8.16124 2.82062 7.58958L2.42299 8.07178L2.02535 8.55397C2.44335 8.89867 2.70796 9.41772 2.70801 9.99957L3.33301 9.99951ZM2.13164 7.2553L2.72182 7.46101C3.04121 6.54469 3.52844 5.70699 4.14783 4.98478L3.67341 4.5779L3.19899 4.17102C2.47957 5.00986 1.91303 5.98359 1.54147 7.04958L2.13164 7.2553ZM4.42957 4.38051L4.28606 4.98881C5.03125 5.16462 5.84426 5.0691 6.56149 4.65505L6.24902 4.11377L5.93655 3.57249C5.50702 3.82045 5.02193 3.8781 4.57307 3.77221L4.42957 4.38051ZM6.24902 4.11377L6.56152 4.65504C7.34278 4.20397 7.85314 3.46603 8.04058 2.65407L7.4316 2.51349L6.82262 2.3729C6.70955 2.86268 6.40396 3.30263 5.93652 3.5725L6.24902 4.11377ZM7.94431 1.92238L8.0981 2.52816C8.70593 2.37385 9.34299 2.2915 10 2.2915L10 1.6665L10 1.0415C9.23813 1.0415 8.49778 1.13704 7.79051 1.3166L7.94431 1.92238ZM7.4316 2.51349L8.04058 2.65407C8.05349 2.59818 8.07539 2.55876 8.09238 2.5381C8.10696 2.52035 8.10957 2.52525 8.0981 2.52816L7.94431 1.92238L7.79051 1.3166C7.21546 1.46259 6.91813 1.95917 6.82262 2.3729L7.4316 2.51349ZM2.42299 8.07178L2.82062 7.58958C2.77004 7.54787 2.74065 7.50276 2.72886 7.4726C2.71895 7.44723 2.72624 7.44833 2.72182 7.46101L2.13164 7.2553L1.54147 7.04958C1.32038 7.68388 1.66296 8.25513 2.02535 8.55397L2.42299 8.07178ZM4.42961 15.6177L4.28643 15.0093C4.23065 15.0225 4.18566 15.0203 4.1596 15.0142C4.13719 15.009 4.14029 15.0044 4.14788 15.0133L3.67345 15.4201L3.19901 15.827C3.58443 16.2764 4.16 16.3232 4.57279 16.2261L4.42961 15.6177ZM7.94425 18.0767L8.09827 17.471C8.10965 17.4739 8.10699 17.4787 8.09238 17.461C8.07538 17.4403 8.05347 17.4009 8.04057 17.345L7.43159 17.4856L6.82261 17.6262C6.91814 18.0399 7.21544 18.5363 7.79023 18.6825L7.94425 18.0767ZM12.5655 17.4862L11.9565 17.3455C11.9436 17.4015 11.9216 17.441 11.9046 17.4618C11.8899 17.4796 11.8872 17.4747 11.8986 17.4718L12.0524 18.0776L12.2062 18.6834C12.7814 18.5374 13.0788 18.0406 13.1744 17.6269L12.5655 17.4862ZM16.3246 15.4213L15.8503 15.0143C15.8579 15.0055 15.8609 15.01 15.8386 15.0152C15.8126 15.0213 15.7677 15.0235 15.7121 15.0103L15.5686 15.6187L15.4252 16.227C15.8381 16.3244 16.4135 16.2775 16.7989 15.8284L16.3246 15.4213ZM17.8682 7.25516L17.2781 7.46101C17.2737 7.44828 17.281 7.44712 17.2711 7.47246C17.2593 7.50259 17.2299 7.54767 17.1793 7.58935L17.5768 8.07171L17.9742 8.55406C18.3368 8.25527 18.6797 7.68382 18.4584 7.04931L17.8682 7.25516ZM2.13148 12.7425L2.72168 12.5369C2.7261 12.5496 2.71882 12.5507 2.72871 12.5254C2.74047 12.4953 2.7698 12.4503 2.8203 12.4087L2.42277 11.9264L2.02524 11.4441C1.66275 11.7429 1.32034 12.314 1.54128 12.9482L2.13148 12.7425ZM15.5687 4.38036L15.7121 4.98868C15.7677 4.97556 15.8126 4.97773 15.8386 4.98379C15.861 4.989 15.8579 4.99354 15.8503 4.98472L16.3246 4.57766L16.7989 4.17059C16.4134 3.72154 15.8381 3.67467 15.4252 3.77205L15.5687 4.38036ZM3.67341 4.5779L4.14783 4.98478C4.14022 4.99365 4.1371 4.98912 4.15945 4.98391C4.18545 4.97785 4.23037 4.97568 4.28606 4.98881L4.42957 4.38051L4.57307 3.77221C4.16015 3.6748 3.58447 3.72155 3.19899 4.17102L3.67341 4.5779ZM17.577 11.9265L17.1796 12.4089C17.2302 12.4505 17.2595 12.4955 17.2712 12.5256C17.2811 12.5508 17.2738 12.5497 17.2783 12.537L17.8684 12.7427L18.4586 12.9484C18.6797 12.3141 18.3371 11.7428 17.9743 11.444L17.577 11.9265ZM12.0523 1.92147L11.8988 2.52732C11.8873 2.52441 11.8899 2.5195 11.9046 2.5373C11.9216 2.55803 11.9436 2.59756 11.9565 2.65361L12.5655 2.51289L13.1744 2.37218C13.0788 1.95849 12.7814 1.46148 12.2059 1.31563L12.0523 1.92147Z" fill="#FAFAFA"/>
</svg>
